<svg width="21" height="16" viewBox="0 0 21 16" fill="none" xmlns="http://www.w3.org/2000/svg">
<g clip-path="url(#clip0_96_6)">
<path d="M17.789 1.33294C16.4093 0.701268 14.9528 0.253139 13.4566 0C13.2518 0.366002 13.0666 0.74257 12.9016 1.12813C11.3079 0.887969 9.68715 0.887969 8.09342 1.12813C7.92835 0.742609 7.7431 0.366046 7.53845 0C6.0413 0.255277 4.58378 0.70447 3.20267 1.33624C0.460815 5.39287 -0.28246 9.34875 0.0891772 13.2485C1.69488 14.4348 3.49212 15.3371 5.40277 15.916C5.83299 15.3374 6.21368 14.7235 6.54081 14.0809C5.91948 13.8489 5.3198 13.5626 4.74869 13.2253C4.89899 13.1163 5.046 13.004 5.18804 12.895C6.84984 13.6765 8.6636 14.0817 10.5 14.0817C12.3364 14.0817 14.1501 13.6765 15.8119 12.895C15.9556 13.0123 16.1026 13.1246 16.2513 13.2253C15.6791 13.5631 15.0783 13.85 14.4559 14.0826C14.7826 14.7249 15.1633 15.3382 15.5939 15.916C17.5062 15.3394 19.3048 14.4376 20.9108 13.2501C21.3468 8.7277 20.1659 4.80816 17.789 1.33294ZM7.01155 10.8502C5.97592 10.8502 5.12032 9.91033 5.12032 8.75413C5.12032 7.59792 5.94619 6.64983 7.00824 6.64983C8.0703 6.64983 8.91929 7.59792 8.90112 8.75413C8.88295 9.91033 8.067 10.8502 7.01155 10.8502ZM13.9884 10.8502C12.9511 10.8502 12.0989 9.91033 12.0989 8.75413C12.0989 7.59792 12.9247 6.64983 13.9884 6.64983C15.0521 6.64983 15.8945 7.59792 15.8763 8.75413C15.8582 9.91033 15.0439 10.8502 13.9884 10.8502Z" fill="black"/>
</g>
<defs>
<clipPath id="clip0_96_6">
<rect width="21" height="15.916" fill="white"/>
</clipPath>
</defs>
</svg>
