<svg width="61" height="60" viewBox="0 0 61 60" fill="none" xmlns="http://www.w3.org/2000/svg">
<path d="M36.5 25.9996H35.4996V24C35.499 22.6742 34.9721 21.4029 34.0346 20.4654C33.0971 19.5279 31.8258 19.001 30.5 19.0004C29.1742 19.001 27.9029 19.5279 26.9654 20.4654C26.0279 21.4029 25.501 22.6742 25.5004 24V25.9996H24.5C23.3946 25.9996 22.5004 26.895 22.5004 28.0004V37.9996C22.5004 39.105 23.3946 40.0004 24.5 40.0004H36.5C37.6054 40.0004 38.4996 39.105 38.4996 37.9996V28.0004C38.4996 26.895 37.6054 25.9996 36.5 25.9996ZM30.5 34.9996C30.2334 35.0061 29.9683 34.9592 29.7201 34.8617C29.472 34.7642 29.2458 34.618 29.055 34.4318C28.8641 34.2456 28.7124 34.0231 28.6088 33.7774C28.5053 33.5317 28.4519 33.2678 28.4518 33.0012C28.4517 32.7345 28.505 32.4706 28.6084 32.2248C28.7118 31.9791 28.8634 31.7565 29.0541 31.5702C29.2449 31.3839 29.4709 31.2376 29.719 31.1399C29.9672 31.0423 30.2323 30.9952 30.4988 31.0015C31.0207 31.0139 31.517 31.2299 31.8818 31.6033C32.2466 31.9767 32.4509 32.478 32.451 33C32.4512 33.522 32.2472 34.0234 31.8826 34.397C31.5181 34.7707 31.0219 34.9869 30.5 34.9996ZM33.6004 25.9996H27.3996V24C27.4002 23.1779 27.7271 22.3897 28.3084 21.8084C28.8897 21.2271 29.6779 20.9002 30.5 20.8996C31.3221 20.9002 32.1103 21.2271 32.6916 21.8084C33.2729 22.3897 33.5998 23.1779 33.6004 24V25.9996ZM30.5035 0L31.2477 2.30308H33.6627L31.7104 3.72923L32.4535 6.03462L30.5035 4.61077L28.55 6.03462L29.2954 3.72923L27.3431 2.30308H29.7592L30.5035 0ZM16.9273 3.65192L17.6738 5.95846H20.0865L18.1342 7.38231L18.8808 9.69L16.9273 8.26385L14.975 9.68769L15.7215 7.38231L13.7692 5.95615L16.1808 5.95846L16.9273 3.65192ZM4.13577 15.7131L6.54962 15.7177L7.29962 13.4146L8.04154 15.7223L10.4531 15.7281L8.49731 17.1496L9.23808 19.455L7.29038 18.0265L5.33346 19.4458L6.08346 17.1415L4.13577 15.7131ZM0.5 29.34L2.91269 29.3515L3.67077 27.0508L4.40462 29.3585L6.81731 29.3712L4.86038 30.7858L5.59423 33.0958L3.64885 31.6627L1.68962 33.0762L2.44538 30.7731L0.5 29.34ZM5.21346 46.3535L5.97154 44.0527L4.02615 42.6173L6.43885 42.6288L7.19462 40.3281L7.93077 42.6358L10.3435 42.6485L8.38423 44.0654L9.11808 46.3731L7.17269 44.94L5.21346 46.3535ZM15.1619 56.3458L15.9085 54.0392L13.9562 52.6131H16.3688L17.1142 50.31L17.8608 52.6154H20.2735L18.3212 54.0392L19.0677 56.3446L17.1154 54.9185L15.1619 56.3458ZM28.7381 60L29.4823 57.6946L27.53 56.2708L29.9415 56.2685L30.6858 53.9619L31.4346 56.2685L33.8462 56.2662L31.8962 57.6923L32.6438 59.9954L30.6915 58.5738L28.7381 60ZM45.845 56.3423L43.8904 54.9185L41.9404 56.3481L42.6835 54.0404L40.7288 52.6177L43.1438 52.6154L43.8881 50.31L44.6335 52.6131L47.0485 52.6108L45.0962 54.0369L45.845 56.3423ZM55.7658 46.3731L53.8227 44.9377L51.8612 46.3488L52.6204 44.0481L50.675 42.6127L53.0888 42.6265L53.8492 40.3258L54.5808 42.6369L56.9923 42.6508L55.0342 44.0631L55.7658 46.3731ZM60.5 29.3273L58.5592 30.7708L59.3277 33.0692L57.3604 31.6615L55.4219 33.1038L56.1465 30.7927L54.1827 29.385L56.5942 29.3642L57.3212 27.0508L58.0873 29.3492L60.5 29.3273ZM56.8654 15.7062L54.9212 17.1392L55.6792 19.4423L53.7188 18.0265L51.7746 19.4596L52.5085 17.1519L50.5481 15.7373L52.9619 15.7258L53.6958 13.4146L54.4538 15.7177L56.8654 15.7062ZM44.0796 3.65192L44.8227 5.95846L47.2365 5.96308L45.2831 7.38462L46.025 9.69L44.075 8.26385L42.1204 9.68538L42.8681 7.38231L40.9181 5.95269L43.3308 5.95846L44.0796 3.65192Z" fill="#FCFA58"/>
</svg>
