<svg width="21" height="20" viewBox="0 0 21 20" fill="none" xmlns="http://www.w3.org/2000/svg">
<g clip-path="url(#clip0_96_2)">
<path d="M10.5 -2.32765e-06C8.00482 -0.00247919 5.59028 0.862971 3.68908 2.44125C1.78789 4.01954 0.524315 6.20749 0.124804 8.61301C-0.274706 11.0185 0.21596 13.4844 1.50887 15.5687C2.80179 17.653 4.81243 19.2195 7.18049 19.9874C7.70904 20.0818 7.89596 19.7608 7.89596 19.4901C7.89596 19.2194 7.89596 18.6025 7.89596 17.7463C4.96318 18.3695 4.3444 16.3676 4.3444 16.3676C4.14983 15.7472 3.73649 15.2141 3.17773 14.8631C2.23022 14.2336 3.25508 14.2336 3.25508 14.2336C3.58722 14.2794 3.90434 14.3984 4.1824 14.5816C4.46047 14.7649 4.6922 15.0075 4.86005 15.2912C5.00267 15.5437 5.19495 15.7663 5.42585 15.9461C5.65676 16.1259 5.92175 16.2594 6.20561 16.339C6.48948 16.4185 6.78663 16.4425 7.08002 16.4096C7.37342 16.3767 7.65727 16.2876 7.9153 16.1473C7.95575 15.6294 8.18435 15.1427 8.55987 14.7749C6.22653 14.5168 3.77718 13.6355 3.77718 9.73875C3.76116 8.72079 4.14656 7.73581 4.85361 6.98772C4.5387 6.10263 4.57551 5.13432 4.95674 4.27447C4.95674 4.27447 5.83979 3.99748 7.8444 5.32578C9.56577 4.86418 11.3827 4.86418 13.1041 5.32578C15.1087 3.99748 15.9853 4.27447 15.9853 4.27447C16.3718 5.12523 16.4178 6.08658 16.1142 6.96884C16.8212 7.71692 17.2066 8.70191 17.1906 9.71986C17.1906 13.6607 14.7348 14.5231 12.395 14.7561C12.6459 15.0024 12.8397 15.2985 12.9631 15.6243C13.0866 15.9502 13.1368 16.2981 13.1105 16.6446C13.1105 18.017 13.1105 19.125 13.1105 19.4586C13.1105 19.7923 13.2974 20.0504 13.8324 19.9496C16.1735 19.1614 18.1541 17.5905 19.4241 15.5143C20.6942 13.4381 21.1721 10.9903 20.7734 8.60339C20.3747 6.21643 19.125 4.04392 17.2451 2.46964C15.3653 0.895364 12.9762 0.0206393 10.5 -2.32765e-06Z" fill="black"/>
</g>
<defs>
<clipPath id="clip0_96_2">
<rect width="21" height="20" fill="white"/>
</clipPath>
</defs>
</svg>
