<svg width="192" height="46" viewBox="0 0 192 46" fill="none" xmlns="http://www.w3.org/2000/svg">
<path id="logo" fill-rule="evenodd" clip-rule="evenodd" d="M145.656 22.9403C145.656 35.5835 156.051 45.8673 168.826 45.8673C181.605 45.8673 192.001 35.5876 192.001 22.9403C192.001 10.2931 181.605 0.00683594 168.823 0.00683594C165.135 0.00927184 161.461 0.889987 158.207 2.55181C156.844 3.25038 156.315 4.89786 157.029 6.2322C157.739 7.56599 159.421 8.0889 160.787 7.38844C163.286 6.11013 165.99 5.46272 168.826 5.46028C178.53 5.46028 186.429 13.3069 186.429 22.9403C186.429 32.5738 178.53 40.4139 168.826 40.4139C159.121 40.4139 151.23 32.5738 151.23 22.9403C151.23 19.6879 152.132 16.5196 153.842 13.771C154.643 12.4852 154.223 10.8074 152.911 10.0235C151.592 9.24162 149.879 9.64896 149.08 10.9373C146.839 14.5386 145.656 18.6891 145.656 22.9403ZM85.0104 43.8195C85.5539 44.3524 86.2675 44.6182 86.9806 44.6182C87.6937 44.6182 88.4056 44.3524 88.9503 43.8195C90.0389 42.758 90.0389 41.0291 88.9536 39.9635L80.5578 31.7437C79.4696 30.6778 77.7063 30.6778 76.6182 31.7437C75.5289 32.8049 75.5289 34.5339 76.6143 35.5983L85.0104 43.8195ZM75.6828 1.32715H55.8278C54.6703 1.32715 53.6795 2.01516 53.258 2.99628C53.1067 3.33352 53.0195 3.70378 53.0195 4.09434V41.814C53.0195 43.3213 54.2656 44.5415 55.8062 44.5415C57.3469 44.5415 58.5927 43.3213 58.5927 41.814V6.78195H75.6828C80.3548 6.78195 84.1574 10.5008 84.1574 15.0759C84.1574 19.6511 80.3548 23.371 75.6828 23.371H65.9242C64.3835 23.371 63.1372 24.5908 63.1372 26.0981C63.1372 27.6054 64.3835 28.8253 65.9242 28.8253H75.6828C83.4272 28.8253 89.7309 22.6567 89.7309 15.0759C89.7309 7.49513 83.4272 1.32715 75.6828 1.32715ZM123.002 22.6973H134.29C135.827 22.6973 137.077 23.9168 137.077 25.4247V41.9293C137.077 43.4357 135.831 44.6569 134.29 44.6569C132.749 44.6569 131.502 43.4357 131.502 41.9293V28.151H123.002C121.464 28.151 120.215 26.9325 120.215 25.4247C120.215 23.9168 121.464 22.6973 123.002 22.6973ZM120.503 45.9925C107.723 45.9925 97.3281 35.7059 97.3281 23.0584C97.3281 10.4109 107.723 0.130859 120.503 0.130859C125.535 0.130859 130.322 1.70175 134.35 4.67626C135.577 5.58268 135.819 7.29458 134.895 8.49522C133.968 9.69666 132.221 9.93808 130.991 9.02868C127.938 6.77601 124.313 5.58458 120.503 5.58458C110.799 5.58458 102.9 13.4241 102.9 23.0584C102.9 32.6927 110.799 40.5393 120.503 40.5393C121.731 40.5393 122.969 40.411 124.177 40.1579C125.691 39.8299 127.165 40.7802 127.486 42.2539C127.808 43.7268 126.85 45.1745 125.342 45.4901C123.753 45.8241 122.122 45.9925 120.503 45.9925H120.503ZM19.8281 41.8116C19.8281 43.3186 21.0756 44.5387 22.6146 44.5387C24.1538 44.5387 25.4021 43.3186 25.4021 41.8116V25.5246C25.4021 24.0189 24.1535 22.7988 22.6146 22.7988C21.0756 22.7988 19.8281 24.0189 19.8281 25.5246V41.8116ZM28.4359 18.4526C27.6373 18.4526 26.8443 18.1172 26.2939 17.4712C25.3078 16.3114 25.4705 14.5944 26.6526 13.63L40.9369 1.99913C42.1188 1.03506 43.8749 1.19095 44.8596 2.35126C45.8454 3.50858 45.6839 5.22617 44.5009 6.18889L30.2177 17.8225C29.6966 18.2453 29.0651 18.4526 28.4359 18.4526ZM15.2977 17.8221C15.8186 18.2449 16.4495 18.4522 17.0785 18.4522C17.8773 18.4522 18.6714 18.1169 19.2229 17.4708C20.2068 16.3111 20.0441 14.5913 18.8622 13.6297L4.5691 1.99876C3.3861 1.03469 1.62749 1.19356 0.643913 2.35089C-0.339942 3.50794 -0.178133 5.2285 1.0046 6.18852L15.2977 17.8221Z" fill="#F52A3B"/>
</svg>
